<svg width="33" height="33" viewBox="0 0 33 33" fill="none" xmlns="http://www.w3.org/2000/svg">
<g clip-path="url(#clip0_606_13)">
<rect width="32.3265" height="32.3265" rx="9" fill="#56CCF2"/>
<path fill-rule="evenodd" clip-rule="evenodd" d="M25.5918 32.3265H6.73469C3.0158 32.3265 0 29.3107 0 25.5918V6.73469C0 3.0158 3.0158 0 6.73469 0H25.5918C29.3121 0 32.3265 3.0158 32.3265 6.73469V25.5918C32.3265 29.3107 29.3121 32.3265 25.5918 32.3265ZM21.8958 25.3925C22.1854 25.5986 22.5572 25.6498 22.8899 25.5231C23.2212 25.3979 23.4664 25.1137 23.5404 24.7689C24.3203 21.1025 26.2141 11.8194 26.924 8.48437C26.9765 8.23249 26.8876 7.97118 26.6909 7.80282C26.4929 7.6358 26.2182 7.58731 25.9744 7.67755C22.2097 9.07029 10.6139 13.4209 5.874 15.176C5.57363 15.2864 5.37833 15.576 5.38775 15.8939C5.39853 16.2104 5.61269 16.4865 5.9198 16.5795C8.04526 17.2139 10.8361 18.0988 10.8361 18.0988C10.8361 18.0988 12.1386 22.0373 12.8188 24.0388C12.9037 24.2907 13.1017 24.4887 13.3603 24.556C13.6202 24.6234 13.895 24.5533 14.089 24.3702C15.1813 23.3398 16.8691 21.7463 16.8691 21.7463C16.8691 21.7463 20.0761 24.0981 21.8958 25.3925V25.3925ZM12.0093 17.6018L13.5165 22.5747L13.8519 19.4256C13.8519 19.4256 19.6761 14.1725 22.9976 11.1769C23.0946 11.0893 23.1081 10.9425 23.0273 10.8388C22.9464 10.7351 22.7996 10.7109 22.6892 10.7809C18.841 13.2391 12.0093 17.6018 12.0093 17.6018V17.6018Z" fill="#242528"/>
</g>
<defs>
<clipPath id="clip0_606_13">
<rect width="32.3265" height="32.3265" rx="9" fill="white"/>
</clipPath>
</defs>
</svg>
