<svg width="34" height="33" viewBox="0 0 34 33" fill="none" xmlns="http://www.w3.org/2000/svg">
<rect x="0.836792" width="32.3265" height="32.3265" rx="9" fill="#A44BA6"/>
<path fill-rule="evenodd" clip-rule="evenodd" d="M26.4286 32.3265H7.57149C3.85259 32.3265 0.836792 29.3107 0.836792 25.5918V6.73469C0.836792 3.0158 3.85259 0 7.57149 0H26.4286C30.1489 0 33.1633 3.0158 33.1633 6.73469V25.5918C33.1633 29.3107 30.1489 32.3265 26.4286 32.3265ZM25.343 8.36314C24.7786 7.84322 22.4956 6.18649 17.4136 6.16359C17.4136 6.16359 11.4183 5.80261 8.49683 8.48302C6.87108 10.1101 6.29863 12.4888 6.23802 15.4413C6.1774 18.3938 6.09928 23.9243 11.4305 25.4235L11.4359 25.4248L11.4332 27.7133C11.4332 27.7133 11.3995 28.64 12.0083 28.8285C12.7464 29.0575 13.1801 28.3531 13.8846 27.5947C14.2712 27.1785 14.8045 26.5657 15.2073 26.0983C18.8534 26.404 21.6578 25.7036 21.977 25.5999C22.7138 25.3602 26.8785 24.8268 27.556 19.2976C28.2551 13.5947 27.2179 9.9889 25.343 8.36314ZM25.9599 18.8854C25.3874 23.5027 22.0093 23.795 21.387 23.9944C21.1217 24.0792 18.6581 24.6921 15.5615 24.49C15.5615 24.49 13.2529 27.2742 12.5323 27.9988C12.4205 28.112 12.2885 28.1578 12.1996 28.1362C12.0756 28.1052 12.0406 27.9584 12.0433 27.7442L12.0622 23.9405C7.55263 22.6878 7.81528 17.9803 7.86647 15.5154C7.91765 13.0505 8.381 11.0301 9.75622 9.67237C12.2279 7.43375 17.3193 7.7678 17.3193 7.7678C21.6187 7.78665 23.6795 9.08241 24.1577 9.51612C25.743 10.8738 26.5512 14.124 25.9599 18.8854V18.8854ZM17.8446 19.1629C17.8446 19.1629 18.2487 19.1979 18.4655 18.9285L18.8898 18.3951C19.0945 18.1311 19.5889 17.9614 20.0724 18.2308C20.7122 18.5918 21.5406 19.1602 22.1076 19.6896C22.4201 19.9536 22.4929 20.3415 22.2801 20.7509L22.2774 20.759C22.0592 21.1469 21.7655 21.5093 21.3951 21.846L21.387 21.8527C20.9708 22.2002 20.4913 22.4023 19.9781 22.2353L19.9687 22.2218C19.0488 21.9618 16.8411 20.8358 15.4336 19.7138C13.1316 17.8968 11.4965 14.9012 11.0425 13.2956L11.0291 13.2862C10.8621 12.7717 11.0654 12.2922 11.4116 11.8773L11.4183 11.8692C11.7564 11.4988 12.1188 11.2065 12.5053 10.987L12.5134 10.9856C12.9229 10.7715 13.3108 10.8442 13.5748 11.1567C13.9223 11.5163 14.5756 12.3797 15.0335 13.1919C15.3029 13.6755 15.1345 14.1698 14.8692 14.3745L14.3358 14.7988C14.0664 15.0157 14.1014 15.4198 14.1014 15.4198C14.1014 15.4198 14.8908 18.4086 17.8446 19.1629ZM22.4929 16.6845C22.6518 16.6832 22.7798 16.5539 22.7784 16.3949C22.7636 14.5038 22.1844 12.9858 21.057 11.8854C19.9323 10.789 18.5154 10.2273 16.8465 10.2152H16.8452C16.6876 10.2152 16.5583 10.3418 16.5569 10.5007C16.5569 10.6597 16.6835 10.789 16.8425 10.7903C18.3578 10.8011 19.6414 11.3076 20.6556 12.2976C21.6699 13.2862 22.1898 14.6668 22.2033 16.4003C22.2046 16.5579 22.3326 16.6845 22.4902 16.6845H22.4929ZM20.9803 16.0946H20.9735C20.8146 16.0905 20.6893 15.9599 20.6934 15.8009C20.7149 14.8177 20.4347 14.023 19.8354 13.3684C19.2387 12.7164 18.4197 12.3595 17.3301 12.28C17.1725 12.2679 17.0526 12.1305 17.0647 11.9729C17.0768 11.814 17.2142 11.6955 17.3718 11.7062C18.5975 11.7965 19.5687 12.2248 20.2596 12.9804C20.9533 13.7374 21.2928 14.6911 21.2672 15.8131C21.2645 15.9707 21.1365 16.0946 20.9803 16.0946ZM19.5054 15.6002C19.3532 15.6002 19.2265 15.4804 19.2185 15.3268C19.17 14.3516 18.7107 13.8735 17.7719 13.8236C17.6143 13.8142 17.4917 13.6795 17.5011 13.5206C17.5092 13.363 17.6439 13.2404 17.8028 13.2498C19.0407 13.3158 19.729 14.0243 19.7923 15.2985C19.8003 15.4575 19.6791 15.5922 19.5202 15.6002H19.5054V15.6002Z" fill="#242528"/>
</svg>
