<svg width="33" height="33" viewBox="0 0 33 33" fill="none" xmlns="http://www.w3.org/2000/svg">
<g clip-path="url(#clip0_606_16)">
<rect x="0.673462" width="32.3265" height="32.3265" rx="9" fill="#44D37D"/>
<path d="M16.8852 7.19131C11.9891 7.19131 8.00754 11.1729 8.00485 16.0663C8.0035 18.0638 8.58942 19.5602 9.57269 21.1254L8.67562 24.4011L12.0349 23.5202C13.5394 24.4133 14.9766 24.9493 16.8771 24.9493C21.7692 24.9493 25.7548 20.9678 25.7562 16.073C25.7602 11.1688 21.7935 7.19265 16.8852 7.19131V7.19131ZM22.106 19.8835C21.8837 20.5071 20.8169 21.0756 20.3051 21.1523C19.8458 21.221 19.2639 21.2493 18.6241 21.0473C18.2362 20.9247 17.7392 20.7604 17.1034 20.4856C14.4271 19.3299 12.6787 16.6347 12.5454 16.4569C12.412 16.2791 11.4557 15.0103 11.4557 13.697C11.4557 12.3838 12.1453 11.7386 12.3891 11.4705C12.6343 11.2011 12.9225 11.1338 13.1003 11.1338L13.6122 11.1432C13.7765 11.1513 13.996 11.0813 14.2129 11.6012C14.4351 12.1359 14.9685 13.4492 15.0359 13.5825C15.1019 13.7159 15.1477 13.8721 15.0574 14.0499C14.9685 14.2277 14.9241 14.3395 14.7907 14.4944L14.3907 14.9618C14.2573 15.0951 14.1186 15.2393 14.2735 15.506C14.4297 15.7727 14.9645 16.6468 15.7578 17.354C16.7775 18.2631 17.6368 18.5447 17.9035 18.678C18.1702 18.8113 18.3264 18.7898 18.4813 18.6107C18.6376 18.4329 19.1481 17.8321 19.3259 17.5641C19.5037 17.296 19.6815 17.3418 19.9266 17.4307C20.1717 17.5196 21.4837 18.1648 21.7504 18.2995C22.0171 18.4329 22.1948 18.5002 22.2622 18.6107C22.3282 18.7251 22.3282 19.2599 22.106 19.8835V19.8835ZM26.2653 0H7.40816C3.68926 0 0.673462 3.0158 0.673462 6.73469V25.5918C0.673462 29.3107 3.68926 32.3265 7.40816 32.3265H26.2653C29.9855 32.3265 33 29.3107 33 25.5918V6.73469C33 3.0158 29.9855 0 26.2653 0ZM16.8812 26.7529C15.0938 26.7529 13.3333 26.3044 11.7736 25.4531L6.1124 26.9388L7.62771 21.4056C6.69293 19.7865 6.2013 17.9493 6.20265 16.0663C6.20534 10.1775 10.9951 5.38775 16.8812 5.38775C19.738 5.3891 22.4198 6.50167 24.4362 8.51939C26.4525 10.5371 27.5624 13.2216 27.5611 16.0744C27.5584 21.9632 22.7673 26.7529 16.8812 26.7529V26.7529Z" fill="#242528"/>
</g>
<defs>
<clipPath id="clip0_606_16">
<rect x="0.673462" width="32.3265" height="32.3265" rx="9" fill="white"/>
</clipPath>
</defs>
</svg>
